<svg width="111" height="32" viewBox="0 0 111 32" fill="none" xmlns="http://www.w3.org/2000/svg">
<path fill-rule="evenodd" clip-rule="evenodd" d="M49.3965 7.55498C49.1159 7.55498 48.9915 7.7216 48.8873 7.96001C42.3372 23.0037 41.7875 24.193 41.7875 24.193C45.4994 24.193 45.4994 24.193 45.4994 24.193C46.2719 22.3056 46.2719 22.3056 46.2719 22.3056C51.8644 22.3056 51.8644 22.3056 51.8644 22.3056C52.6397 24.193 52.6397 24.193 52.6397 24.193C57.0054 24.193 57.0055 24.193 57.0055 24.193C57.0055 24.193 56.6323 23.4202 49.9057 7.96001C49.8015 7.7216 49.6772 7.55498 49.3965 7.55498ZM47.4523 19.4273C49.0638 15.4891 49.0638 15.4891 49.0638 15.4891C50.681 19.4273 50.681 19.4273 50.681 19.4273H47.4523ZM67.9386 16.6353C69.2145 15.8768 70.1808 14.5526 70.1808 12.6538C70.1808 11.1629 69.582 9.93344 68.5404 9.10335C67.4845 8.25877 66.2636 7.80198 63.7667 7.80198C58.426 7.80198 58.426 7.80198 58.426 7.80198C58.426 24.193 58.426 24.193 58.426 24.193C62.3722 24.193 62.3722 24.193 62.3722 24.193C62.3722 18.0915 62.3722 18.0915 62.3722 18.0915C63.596 18.0915 63.596 18.0915 63.596 18.0915C64.9269 18.0915 65.5981 18.5942 66.1565 19.9243C66.6281 21.0503 66.9607 22.386 67.3948 24.193C71.7952 24.193 71.7952 24.193 71.7952 24.193C71.1703 22.3343 70.8578 21.4553 70.3892 20.1455C69.7468 18.353 68.9686 17.2499 67.9386 16.6353ZM65.4158 14.6244C64.9385 14.9892 64.3223 15.1041 63.2142 15.1041C62.3722 15.1041 62.3722 15.1041 62.3722 15.1041C62.3722 15.1041 62.3636 10.735 62.3722 10.735C63.2142 10.735 63.2142 10.735 63.2142 10.735C64.3714 10.735 64.9471 10.8613 65.4129 11.2117C65.9453 11.6139 66.1825 12.2171 66.1825 12.9152C66.1825 13.6764 65.9164 14.2365 65.4158 14.6244ZM32.9345 14.7479C26.2311 8.08929 26.2311 8.08929 26.2311 8.08929C26.0286 7.89107 25.8261 7.75034 25.5078 7.75034C25.5078 24.193 25.5078 24.193 25.5078 24.193C28.9536 24.193 28.9536 24.193 28.9536 24.193C28.9536 16.3307 28.9536 16.3307 28.9536 16.3307C32.9345 20.2834 32.9345 20.2834 32.9345 20.2834C36.9183 16.3307 36.9183 16.3307 36.9183 16.3307C36.9183 24.193 36.9183 24.193 36.9183 24.193C40.3641 24.193 40.3641 24.193 40.3641 24.193C40.3641 7.75034 40.3641 7.75034 40.3641 7.75034C40.0459 7.75034 39.8434 7.89107 39.6408 8.08929L32.9345 14.7479ZM84.0824 16.0147C82.3235 14.3544 79.1323 14.0699 77.8708 13.0933C77.3761 12.7113 77.1996 12.1482 77.3617 11.611C77.5612 10.9446 78.2296 10.508 79.2103 10.508C80.5615 10.508 81.7734 11.1198 82.6126 12.1109C84.8665 9.76975 84.8666 9.76975 84.8666 9.76975C83.5385 8.36796 81.4179 7.52344 79.1843 7.52344C76.5805 7.52344 74.6161 8.77299 73.7394 10.7665C73.0595 12.3148 73.2939 13.9292 74.13 15.0898C75.7472 17.3361 79.1612 17.405 80.6395 18.5569C81.1661 18.9677 81.4612 19.6313 81.1459 20.3466C80.8739 20.9728 80.1882 21.3979 79.0657 21.4266C77.5092 21.4639 76.1205 20.7401 75.0991 19.4733C72.8425 21.8173 72.8425 21.8173 72.8425 21.8173C74.3354 23.6127 76.5574 24.4774 79.2421 24.4774C81.8516 24.4774 84.1432 23.4691 85.0775 21.3203C85.8965 19.4417 85.6012 17.4453 84.0824 16.0147Z" fill="black"/>
</svg>
