<svg width="108" height="24" viewBox="0 0 108 24" fill="none" xmlns="http://www.w3.org/2000/svg">
<path fill-rule="evenodd" clip-rule="evenodd" d="M0 17.3396C0 17.3396 14.661 12.7636 53.847 12.7636C93.3173 12.7636 107.907 17.3117 107.907 17.3117C107.907 17.3117 90.0585 14.1911 53.847 14.1911C17.6363 14.1911 0 17.3396 0 17.3396ZM22.7738 19.7121H23.5117V23.9146H22.7738V22.1435H20.7682V23.9146H20.0295V19.7121H20.7682V21.4591H22.7738V19.7121ZM28.5075 21.8255V21.8144C28.5075 20.9979 27.9135 20.3194 27.0787 20.3194C26.244 20.3194 25.6612 20.9858 25.6612 21.8023V21.8134C25.6612 22.63 26.256 23.3025 27.0908 23.3025C27.9255 23.3025 28.5075 22.6419 28.5075 21.8255ZM24.8872 21.8255V21.8144C24.8872 20.6315 25.8 19.6409 27.0908 19.6409C28.3823 19.6409 29.2822 20.6194 29.2822 21.8023V21.8134C29.2822 22.9963 28.3695 23.9871 27.0787 23.9871C25.788 23.9871 24.8872 23.0081 24.8872 21.8255ZM31.4625 20.3963H30.1298V19.712H33.54V20.3963H32.2065V23.9147H31.4625V20.3963ZM34.8015 19.712H37.9178V20.3722H35.5402V21.4651H37.6478V22.1257H35.5402V23.2542H37.9478V23.9148H34.8015V19.712ZM39.3052 19.712H40.044V23.2425H42.2535V23.9148H39.3052V19.712ZM43.2202 23.3024L43.6642 22.7741C44.0662 23.1221 44.475 23.3203 44.9917 23.3203C45.4477 23.3203 45.7358 23.1042 45.7358 22.7921V22.7809C45.7358 22.4807 45.5677 22.3189 44.7877 22.1386C43.893 21.9225 43.3882 21.658 43.3882 20.8837V20.8726C43.3882 20.152 43.989 19.6538 44.8237 19.6538C45.4357 19.6538 45.9225 19.8397 46.3485 20.182L45.9525 20.7404C45.5738 20.4581 45.1957 20.3081 44.8117 20.3081C44.379 20.3081 44.1263 20.5301 44.1263 20.8067V20.8178C44.1263 21.142 44.319 21.2861 45.1298 21.4784C46.0185 21.6946 46.4745 22.0127 46.4745 22.7092V22.7204C46.4745 23.5068 45.8557 23.9751 44.9737 23.9751C44.331 23.9751 43.7242 23.7527 43.2202 23.3024ZM52.017 20.7086V20.6974C52.017 20.4151 51.819 20.2231 51.5423 20.2231C51.2423 20.2231 51.0382 20.4332 51.0382 20.7275V20.7385C51.0382 20.9485 51.1222 21.1048 51.357 21.3629C51.7882 21.2071 52.017 21.0085 52.017 20.7086ZM52.041 22.9962L51.1043 22.0414C50.7135 22.2097 50.5463 22.4677 50.5463 22.7379V22.7491C50.5463 23.1034 50.8402 23.3617 51.2482 23.3617C51.537 23.3617 51.801 23.2243 52.041 22.9962ZM52.461 23.4285C52.101 23.7647 51.6803 23.9747 51.1763 23.9747C50.3895 23.9747 49.8008 23.5006 49.8008 22.7741V22.763C49.8008 22.2224 50.1195 21.8322 50.6955 21.586C50.4555 21.2801 50.3475 21.0158 50.3475 20.7095V20.6983C50.3475 20.134 50.8043 19.6417 51.555 19.6417C52.221 19.6417 52.6718 20.0919 52.6718 20.6563V20.6674C52.6718 21.2199 52.305 21.5501 51.7462 21.7601L52.4678 22.4927C52.6298 22.2523 52.7798 21.9765 52.9178 21.6821L53.4765 21.9766C53.3078 22.3128 53.1218 22.6427 52.9058 22.9309L53.5725 23.6036L53.0197 24L52.461 23.4285ZM58.8682 21.7955C59.397 21.7955 59.7338 21.5192 59.7338 21.0928V21.0816C59.7338 20.6317 59.409 20.3852 58.863 20.3852H57.7882V21.7963L58.8682 21.7955ZM57.0488 19.712H58.923C59.451 19.712 59.865 19.8677 60.1357 20.1322C60.3577 20.36 60.483 20.6725 60.483 21.0385V21.0497C60.483 21.7403 60.069 22.1545 59.487 22.3226L60.6217 23.9138H59.745L58.7123 22.4489H57.7882V23.9138H57.0488V19.712ZM61.8705 19.712H64.9868V20.3722H62.61V21.4651H64.7168V22.1257H62.61V23.2542H65.0175V23.9148H61.8705V19.712ZM66.0923 23.3024L66.5362 22.7741C66.939 23.1221 67.347 23.3203 67.8638 23.3203C68.3198 23.3203 68.6085 23.1042 68.6085 22.7921V22.7809C68.6085 22.4807 68.4397 22.3189 67.6597 22.1386C66.765 21.9225 66.2603 21.658 66.2603 20.8837V20.8726C66.2603 20.152 66.861 19.6538 67.6958 19.6538C68.3085 19.6538 68.7945 19.8397 69.2205 20.182L68.8237 20.7404C68.4457 20.4581 68.0677 20.3081 67.6837 20.3081C67.251 20.3081 66.999 20.5301 66.999 20.8067V20.8178C66.999 21.142 67.191 21.2861 68.0018 21.4784C68.8905 21.6946 69.3465 22.0127 69.3465 22.7092V22.7204C69.3465 23.5068 68.7285 23.9751 67.8457 23.9751C67.203 23.9751 66.5963 23.7527 66.0923 23.3024ZM74.1323 21.8255V21.8144C74.1323 20.9979 73.5383 20.3194 72.7035 20.3194C71.8688 20.3194 71.286 20.9858 71.286 21.8023V21.8134C71.286 22.63 71.8807 23.3025 72.7155 23.3025C73.5502 23.3025 74.1323 22.6419 74.1323 21.8255ZM70.512 21.8255V21.8144C70.512 20.6315 71.4247 19.6409 72.7155 19.6409C74.007 19.6409 74.907 20.6194 74.907 21.8023V21.8134C74.907 22.9963 73.9943 23.9871 72.7035 23.9871C71.4128 23.9871 70.512 23.0081 70.512 21.8255ZM78.1012 21.7955C78.6292 21.7955 78.9668 21.5192 78.9668 21.0927V21.0816C78.9668 20.6316 78.642 20.3852 78.096 20.3852H77.0205V21.7963L78.1012 21.7955ZM76.2817 19.712H78.1553C78.684 19.712 79.098 19.8677 79.3687 20.1321C79.5907 20.36 79.716 20.6725 79.716 21.0385V21.0497C79.716 21.7403 79.302 22.1545 78.72 22.3226L79.8548 23.9137H78.978L77.9453 22.4489H77.0205V23.9137H76.2817V19.712ZM82.119 20.3963H80.7862V19.712H84.1965V20.3963H82.863V23.9147H82.119V20.3963ZM85.0845 23.3024L85.5293 22.7741C85.9313 23.122 86.34 23.3203 86.8568 23.3203C87.3128 23.3203 87.6007 23.1041 87.6007 22.792V22.7809C87.6007 22.4807 87.4328 22.3188 86.6528 22.1386C85.7573 21.9224 85.2533 21.658 85.2533 20.8837V20.8725C85.2533 20.1519 85.8532 19.6538 86.688 19.6538C87.3007 19.6538 87.7867 19.8397 88.2135 20.1819L87.8168 20.7403C87.4388 20.458 87.0608 20.3081 86.6768 20.3081C86.244 20.3081 85.9912 20.5301 85.9912 20.8067V20.8177C85.9912 21.1419 86.184 21.286 86.9947 21.4783C87.8827 21.6945 88.3388 22.0127 88.3388 22.7092V22.7204C88.3388 23.5067 87.7208 23.975 86.8388 23.975C86.1953 23.975 85.5892 23.7527 85.0845 23.3024ZM10.8705 0.0774976H12.939L15.5362 8.15025L18.2123 0.04662H19.8292L22.5045 8.15025L25.1025 0.0774976H27.1088L23.3138 11.0432H21.6645L18.9893 3.21952L16.314 11.0432H14.6655L10.8705 0.0774976ZM31.9635 6.67268L27.6397 0.0774H29.895L32.9438 4.8993L36.0233 0.0774H38.2163L33.8925 6.62588V10.9657H31.9635V6.67268ZM39.2753 0.0774976H41.0483L46.881 7.60575V0.0774976H48.7635V10.9655H47.1607L41.157 3.21952V10.9655H39.2753V0.0774976ZM55.3133 9.22335C57.6 9.22335 59.0925 7.68375 59.0925 5.55255V5.52157C59.0925 3.39043 57.6 1.81973 55.3133 1.81973H53.1668V9.2232L55.3133 9.22335ZM51.2535 0.0775648H55.3133C58.7348 0.0775648 61.0995 2.42626 61.0995 5.4906V5.52157C61.0995 8.58547 58.7348 10.9655 55.3133 10.9655H51.2535V0.0775648ZM63.108 0.0774976H65.0205V4.60395H70.2158V0.0774976H72.1283V10.9655H70.2158V6.37687H65.0205V10.9655H63.108V0.0774976ZM81.2138 6.64147L79.332 2.28633L77.4645 6.64147H81.2138ZM78.4762 0H80.2492L85.0395 10.9655H83.0175L81.9135 8.33693H76.7655L75.645 10.9655H73.6852L78.4762 0ZM86.286 0.0775648H88.3237L91.6365 5.226L94.9492 0.0775648H96.987V10.9656H95.0745V3.15742L91.6365 8.29035H91.575L88.1678 3.18875V10.9656H86.286V0.0775648Z" fill="#191919"/>
</svg>
